Coordinates
version=1
nRows=19
nColumns=24
inDegrees=yes

Units are S.I. units (second, meters, Newtons, ...)
Angles are in degrees.

endheader
time	pelvis_tilt	pelvis_list	pelvis_rotation	pelvis_tx	pelvis_ty	pelvis_tz	hip_flexion_r	hip_adduction_r	hip_rotation_r	knee_angle_r	ankle_angle_r	subtalar_angle_r	mtp_angle_r	hip_flexion_l	hip_adduction_l	hip_rotation_l	knee_angle_l	ankle_angle_l	subtalar_angle_l	mtp_angle_l	lumbar_extension	lumbar_bending	lumbar_rotation
      5.54000000	     -7.55924567	     -9.73953606	      3.48579461	     -0.77907299	     -0.01457726	      2.06142661	      3.49852835	     15.03077284	     -8.06695358	     -4.34924459	     10.81206195	     -1.31542902	    -56.91928954	     34.69472843	     -8.36463222	      1.67104780	    -50.65062148	     -3.93296155	     -7.65173123	     37.87348100	      4.67952982	      8.76574536	     -2.80335628
      5.55000000	     -7.63372667	     -9.37106346	      3.48880363	     -0.76802273	     -0.01519508	      2.06178161	      2.60304780	     14.75790997	     -8.00119505	     -3.98459739	     11.26856898	     -1.29060526	    -56.72915173	     35.39824108	     -7.83429472	      1.27377350	    -48.06717680	     -3.56516230	     -7.04240394	     37.67523883	      4.57999317	      8.34622153	     -2.49548961
      5.56000000	     -7.77059532	     -9.02424124	      3.54274107	     -0.75693092	     -0.01610926	      2.06198592	      1.79707462	     14.49063645	     -7.98011750	     -3.65464925	     11.79221595	     -1.27408428	    -56.55616590	     36.08608819	     -7.31489988	      0.85091038	    -45.29060199	     -3.31538193	     -6.33377694	     37.53361915	      4.56195203	      7.94534805	     -2.25861939
      5.57000000	     -7.90766989	     -8.67060379	      3.60705061	     -0.74586832	     -0.01711100	      2.06213633	      1.01990908	     14.20279003	     -8.03556959	     -3.37401706	     12.31558636	     -1.17203988	    -56.38169031	     36.65289364	     -6.81350205	      0.35383369	    -42.28320841	     -3.27431510	     -5.50720271	     37.38470629	      4.53378034	      7.52641548	     -2.02249798
      5.58000000	     -8.06270053	     -8.33820124	      3.74727453	     -0.73480131	     -0.01830017	      2.06210020	      0.29604733	     13.92292935	     -8.20511312	     -3.14092176	     12.88809017	     -1.03818665	    -56.22328806	     37.13653761	     -6.29869307	     -0.14906775	    -39.08860665	     -3.41504974	     -4.59985221	     37.21309903	      4.53084110	      7.12675335	     -1.86304689
      5.59000000	     -8.21708953	     -8.02330499	      3.91932718	     -0.72367914	     -0.01958195	      2.06193581	     -0.40511378	     13.65074090	     -8.46110897	     -2.95259644	     13.47470462	     -0.82065559	    -56.09418771	     37.48690563	     -5.78498063	     -0.65677457	    -35.71659453	     -3.74687770	     -3.61911592	     36.95710430	      4.53512323	      6.74150462	     -1.75046669
      5.60000000	     -8.32416406	     -7.72230781	      4.13983158	     -0.71243249	     -0.02089190	      2.06158221	     -1.14269698	     13.38617098	     -8.81555987	     -2.79789369	     14.05482282	     -0.52719451	    -56.00628614	     37.65173357	     -5.24632401	     -1.10475614	    -32.21414600	     -4.22792498	     -2.60602052	     36.52276157	      4.50663880	      6.37651938	     -1.68279413
      5.61000000	     -8.37880642	     -7.43478481	      4.36953152	     -0.70107737	     -0.02219431	      2.06112448	     -1.90026273	     13.13438442	     -9.25570149	     -2.72200533	     14.61329878	     -0.18106029	    -55.94771324	     37.64222870	     -4.71195402	     -1.51067812	    -28.65788457	     -4.83309962	     -1.59373440	     35.87587244	      4.42840903	      6.03296320	     -1.62879383
      5.62000000	     -8.29971637	     -7.17168550	      4.68397063	     -0.68959842	     -0.02344184	      2.06046807	     -2.76531312	     12.91122787	     -9.85444341	     -2.71484385	     15.16461216	      0.25275284	    -55.98727907	     37.41660347	     -4.15172992	     -1.74483898	    -25.16833359	     -5.38248476	     -0.53044858	     34.74220242	      4.22483422	      5.72154501	     -1.68191839
      5.63000000	     -8.35305357	     -6.90698134	      4.77329801	     -0.67798912	     -0.02474333	      2.05992655	     -3.39826669	     12.64323858	    -10.35073624	     -2.94097779	     15.72204107	      0.79154726	    -55.86249436	     37.21640281	     -3.70884307	     -2.12239088	    -21.73376443	     -6.02744679	      0.34776933	     33.96333700	      4.14648806	      5.43340663	     -1.49642817
      5.64000000	     -8.23757862	     -6.62976428	      4.96565458	     -0.66616281	     -0.02590650	      2.05914646	     -4.17270121	     12.34014657	    -11.06048081	     -3.27360457	     16.30006283	      1.61371982	    -55.66377493	     36.79321821	     -3.21452247	     -2.34141523	    -18.50252955	     -6.42773379	      1.27960971	     33.07916363	      3.92107873	      5.14002663	     -1.45201261
      5.65000000	     -8.14489442	     -6.34111230	      5.08164080	     -0.65412862	     -0.02703355	      2.05831009	     -4.85546930	     11.97162445	    -11.79260627	     -3.78701849	     16.87507173	      2.64151954	    -55.41562134	     36.34270010	     -2.75514317	     -2.57527475	    -15.52463789	     -6.55812440	      2.18570418	     32.08110275	      3.73564910	      4.84742902	     -1.32668113
      5.66000000	     -8.02339217	     -5.99655444	      5.21296484	     -0.64185318	     -0.02805489	      2.05728492	     -5.52576211	     11.49694985	    -12.46950951	     -4.43366928	     17.40756751	      3.71656745	    -55.18969988	     35.83431819	     -2.21766753	     -2.65948805	    -12.96490136	     -6.05376254	      3.12733655	     28.71599928	      3.54641501	      4.50499548	     -1.26235134
      5.67000000	     -7.99986410	     -5.72201734	      5.25849022	     -0.62934271	     -0.02915562	      2.05631187	     -6.01724587	     11.02828421	    -13.20044115	     -5.26473768	     17.88493750	      5.08858256	    -54.69824717	     35.43561179	     -1.83458294	     -3.05940574	    -10.73340651	     -5.59269078	      4.22734530	     27.89121774	      3.49394388	      4.22859668	     -1.16175966
      5.68000000	     -7.89779493	     -5.33720520	      5.19394698	     -0.61668778	     -0.03001171	      2.05533221	     -6.52761223	     10.39135775	    -13.65959434	     -6.28578646	     18.20555162	      6.34273633	    -53.38387933	     34.91936953	     -1.39279466	     -3.41971336	     -9.00679621	     -4.72352421	      5.11065225	     24.66429577	      3.34563487	      3.85949693	     -0.98523037
      5.69000000	     -7.92233556	     -5.06257984	      5.09008611	     -0.60368053	     -0.03103401	      2.05441044	     -6.86158388	      9.83230679	    -13.99806584	     -7.39893100	     18.32311835	      7.54046763	    -51.63040237	     34.64415869	     -1.09366724	     -3.90213057	     -7.92733163	     -3.66472625	      6.14220166	     22.35202420	      3.39896164	      3.57798376	     -0.77681164
      5.70000000	     -7.97915186	     -4.86845527	      4.95631597	     -0.59043912	     -0.03211059	      2.05346667	     -7.10135343	      9.31199635	    -14.24281412	     -8.63487750	     18.44389249	      8.76882465	    -50.72901598	     34.51582787	     -0.90105093	     -4.47996957	     -7.47898650	     -2.83177503	      6.97016627	     21.93843081	      3.52528355	      3.37823304	     -0.62561998
      5.71000000	     -7.94847265	     -4.58594865	      4.74801412	     -0.57663019	     -0.03296389	      2.05263894	     -7.46456922	      8.70845308	    -14.18284596	     -9.85939353	     17.94610990	      9.69423782	    -47.01072550	     34.29313108	     -0.66909828	     -4.85654366	     -7.64400410	     -1.90065212	      7.15850672	     20.37469545	      3.63236015	      3.07440190	     -0.36165118
      5.72000000	     -7.97835707	     -4.47376843	      4.60965180	     -0.56259197	     -0.03404604	      2.05164810	     -7.66726353	      8.22612696	    -14.33259331	    -11.25469244	     17.71028803	     10.93100746	    -45.56672505	     34.30240789	     -0.58280580	     -5.15317064	     -8.48452001	     -1.18818550	      7.19823016	     20.66382747	      3.85660279	      2.94307072	     -0.26809060
